{
    "asset" : {
        "generator" : "Khronos glTF Blender I/O v3.2.40",
        "version" : "2.0"
    },
    "scene" : 0,
    "scenes" : [
        {
            "name" : "Scene",
            "nodes" : [
                0,
                1
            ]
        }
    ],
    "nodes" : [
        {
            "mesh" : 0,
            "name" : "Plane.009",
            "rotation" : [
                0,
                0.6814113259315491,
                0,
                0.731900691986084
            ],
            "scale" : [
                0.1700288951396942,
                0.5793434381484985,
                0.6345049738883972
            ],
            "translation" : [
                0.6303762793540955,
                1.4554803371429443,
                5.706705093383789
            ]
        },
        {
            "mesh" : 1,
            "name" : "Text",
            "rotation" : [
                0.002206133445724845,
                -0.7029494047164917,
                0.7112109065055847,
                0.006030230317264795
            ],
            "translation" : [
                3.093302011489868,
                0.18156301975250244,
                5.582056999206543
            ]
        }
    ],
    "materials" : [
        {
            "doubleSided" : true,
            "name" : "Material.002",
            "pbrMetallicRoughness" : {
                "baseColorFactor" : [
                    0.0016801300225779414,
                    0.8000000715255737,
                    0.03854108974337578,
                    1
                ],
                "metallicFactor" : 0,
                "roughnessFactor" : 0.4000000059604645
            }
        },
        {
            "doubleSided" : true,
            "name" : "Material.006",
            "pbrMetallicRoughness" : {
                "baseColorFactor" : [
                    0.0079256072640419,
                    0.0079256072640419,
                    0.0079256072640419,
                    1
                ],
                "metallicFactor" : 0,
                "roughnessFactor" : 0.4000000059604645
            }
        },
        {
            "doubleSided" : true,
            "name" : "Material.005",
            "pbrMetallicRoughness" : {
                "baseColorFactor" : [
                    0.41156837344169617,
                    0.06137596070766449,
                    0.004748264327645302,
                    1
                ],
                "metallicFactor" : 0,
                "roughnessFactor" : 0.4000000059604645
            }
        },
        {
            "doubleSided" : true,
            "name" : "Material.003",
            "pbrMetallicRoughness" : {
                "baseColorFactor" : [
                    0.028154591098427773,
                    0.0928509384393692,
                    0.006525062955915928,
                    1
                ],
                "metallicFactor" : 0,
                "roughnessFactor" : 0.4000000059604645
            }
        },
        {
            "doubleSided" : true,
            "name" : "Material.001",
            "pbrMetallicRoughness" : {
                "baseColorFactor" : [
                    0.014333819970488548,
                    0.8000000715255737,
                    0.0802193433046341,
                    1
                ],
                "metallicFactor" : 0,
                "roughnessFactor" : 0.4000000059604645
            }
        },
        {
            "doubleSided" : true,
            "name" : "Material.007",
            "pbrMetallicRoughness" : {
                "baseColorFactor" : [
                    0.49584999680519104,
                    0.002074240706861019,
                    0.0012055138358846307,
                    1
                ],
                "metallicFactor" : 0.6791045069694519,
                "roughnessFactor" : 0.7358208894729614
            }
        }
    ],
    "meshes" : [
        {
            "name" : "Plane.010",
            "primitives" : [
                {
                    "attributes" : {
                        "POSITION" : 0,
                        "NORMAL" : 1,
                        "TEXCOORD_0" : 2
                    },
                    "indices" : 3,
                    "material" : 0
                },
                {
                    "attributes" : {
                        "POSITION" : 4,
                        "NORMAL" : 5,
                        "TEXCOORD_0" : 6
                    },
                    "indices" : 7,
                    "material" : 1
                },
                {
                    "attributes" : {
                        "POSITION" : 8,
                        "NORMAL" : 9,
                        "TEXCOORD_0" : 10
                    },
                    "indices" : 11,
                    "material" : 2
                },
                {
                    "attributes" : {
                        "POSITION" : 12,
                        "NORMAL" : 13,
                        "TEXCOORD_0" : 14
                    },
                    "indices" : 15,
                    "material" : 3
                },
                {
                    "attributes" : {
                        "POSITION" : 16,
                        "NORMAL" : 17,
                        "TEXCOORD_0" : 18
                    },
                    "indices" : 19,
                    "material" : 4
                }
            ]
        },
        {
            "name" : "Text",
            "primitives" : [
                {
                    "attributes" : {
                        "POSITION" : 20,
                        "NORMAL" : 21,
                        "TEXCOORD_0" : 22
                    },
                    "indices" : 23,
                    "material" : 5
                }
            ]
        }
    ],
    "accessors" : [
        {
            "bufferView" : 0,
            "componentType" : 5126,
            "count" : 752,
            "max" : [
                0.06198396533727646,
                3.939356565475464,
                2.522339344024658
            ],
            "min" : [
                -10.397708892822266,
                -0.09769060462713242,
                -2.7201569080352783
            ],
            "type" : "VEC3"
        },
        {
            "bufferView" : 1,
            "componentType" : 5126,
            "count" : 752,
            "type" : "VEC3"
        },
        {
            "bufferView" : 2,
            "componentType" : 5126,
            "count" : 752,
            "type" : "VEC2"
        },
        {
            "bufferView" : 3,
            "componentType" : 5123,
            "count" : 1128,
            "type" : "SCALAR"
        },
        {
            "bufferView" : 4,
            "componentType" : 5126,
            "count" : 384,
            "max" : [
                5.318142890930176,
                0.7617842555046082,
                1.2642337083816528
            ],
            "min" : [
                -6.460095405578613,
                -0.35388320684432983,
                -1.907800316810608
            ],
            "type" : "VEC3"
        },
        {
            "bufferView" : 5,
            "componentType" : 5126,
            "count" : 384,
            "type" : "VEC3"
        },
        {
            "bufferView" : 6,
            "componentType" : 5126,
            "count" : 384,
            "type" : "VEC2"
        },
        {
            "bufferView" : 7,
            "componentType" : 5123,
            "count" : 744,
            "type" : "SCALAR"
        },
        {
            "bufferView" : 8,
            "componentType" : 5126,
            "count" : 3968,
            "max" : [
                10.125776290893555,
                1.1646733283996582,
                2.332878589630127
            ],
            "min" : [
                -11.436938285827637,
                0.570051908493042,
                -3.117266893386841
            ],
            "type" : "VEC3"
        },
        {
            "bufferView" : 9,
            "componentType" : 5126,
            "count" : 3968,
            "type" : "VEC3"
        },
        {
            "bufferView" : 10,
            "componentType" : 5126,
            "count" : 3968,
            "type" : "VEC2"
        },
        {
            "bufferView" : 11,
            "componentType" : 5123,
            "count" : 5760,
            "type" : "SCALAR"
        },
        {
            "bufferView" : 12,
            "componentType" : 5126,
            "count" : 752,
            "max" : [
                13.668737411499023,
                5.055296897888184,
                1.9675662517547607
            ],
            "min" : [
                -9.440604209899902,
                0.2508973777294159,
                -2.073065757751465
            ],
            "type" : "VEC3"
        },
        {
            "bufferView" : 13,
            "componentType" : 5126,
            "count" : 752,
            "type" : "VEC3"
        },
        {
            "bufferView" : 14,
            "componentType" : 5126,
            "count" : 752,
            "type" : "VEC2"
        },
        {
            "bufferView" : 15,
            "componentType" : 5123,
            "count" : 1128,
            "type" : "SCALAR"
        },
        {
            "bufferView" : 16,
            "componentType" : 5126,
            "count" : 376,
            "max" : [
                2.9553871154785156,
                5.667060852050781,
                -0.3929528295993805
            ],
            "min" : [
                -1.9170658588409424,
                0.22661356627941132,
                -4.168801307678223
            ],
            "type" : "VEC3"
        },
        {
            "bufferView" : 17,
            "componentType" : 5126,
            "count" : 376,
            "type" : "VEC3"
        },
        {
            "bufferView" : 18,
            "componentType" : 5126,
            "count" : 376,
            "type" : "VEC2"
        },
        {
            "bufferView" : 19,
            "componentType" : 5123,
            "count" : 564,
            "type" : "SCALAR"
        },
        {
            "bufferView" : 20,
            "componentType" : 5126,
            "count" : 1068,
            "max" : [
                5.551000595092773,
                0,
                0.23000000417232513
            ],
            "min" : [
                0,
                0,
                -0.6914074420928955
            ],
            "type" : "VEC3"
        },
        {
            "bufferView" : 21,
            "componentType" : 5126,
            "count" : 1068,
            "type" : "VEC3"
        },
        {
            "bufferView" : 22,
            "componentType" : 5126,
            "count" : 1068,
            "type" : "VEC2"
        },
        {
            "bufferView" : 23,
            "componentType" : 5123,
            "count" : 2316,
            "type" : "SCALAR"
        }
    ],
    "bufferViews" : [
        {
            "buffer" : 0,
            "byteLength" : 9024,
            "byteOffset" : 0
        },
        {
            "buffer" : 0,
            "byteLength" : 9024,
            "byteOffset" : 9024
        },
        {
            "buffer" : 0,
            "byteLength" : 6016,
            "byteOffset" : 18048
        },
        {
            "buffer" : 0,
            "byteLength" : 2256,
            "byteOffset" : 24064
        },
        {
            "buffer" : 0,
            "byteLength" : 4608,
            "byteOffset" : 26320
        },
        {
            "buffer" : 0,
            "byteLength" : 4608,
            "byteOffset" : 30928
        },
        {
            "buffer" : 0,
            "byteLength" : 3072,
            "byteOffset" : 35536
        },
        {
            "buffer" : 0,
            "byteLength" : 1488,
            "byteOffset" : 38608
        },
        {
            "buffer" : 0,
            "byteLength" : 47616,
            "byteOffset" : 40096
        },
        {
            "buffer" : 0,
            "byteLength" : 47616,
            "byteOffset" : 87712
        },
        {
            "buffer" : 0,
            "byteLength" : 31744,
            "byteOffset" : 135328
        },
        {
            "buffer" : 0,
            "byteLength" : 11520,
            "byteOffset" : 167072
        },
        {
            "buffer" : 0,
            "byteLength" : 9024,
            "byteOffset" : 178592
        },
        {
            "buffer" : 0,
            "byteLength" : 9024,
            "byteOffset" : 187616
        },
        {
            "buffer" : 0,
            "byteLength" : 6016,
            "byteOffset" : 196640
        },
        {
            "buffer" : 0,
            "byteLength" : 2256,
            "byteOffset" : 202656
        },
        {
            "buffer" : 0,
            "byteLength" : 4512,
            "byteOffset" : 204912
        },
        {
            "buffer" : 0,
            "byteLength" : 4512,
            "byteOffset" : 209424
        },
        {
            "buffer" : 0,
            "byteLength" : 3008,
            "byteOffset" : 213936
        },
        {
            "buffer" : 0,
            "byteLength" : 1128,
            "byteOffset" : 216944
        },
        {
            "buffer" : 0,
            "byteLength" : 12816,
            "byteOffset" : 218072
        },
        {
            "buffer" : 0,
            "byteLength" : 12816,
            "byteOffset" : 230888
        },
        {
            "buffer" : 0,
            "byteLength" : 8544,
            "byteOffset" : 243704
        },
        {
            "buffer" : 0,
            "byteLength" : 4632,
            "byteOffset" : 252248
        }
    ],
    "buffers" : [
        {
            "byteLength" : 256880,
            "uri" : "data:application/octet-stream;base64,"
        }
    ]
}
