{
    "asset" : {
        "generator" : "Khronos glTF Blender I/O v3.2.40",
        "version" : "2.0"
    },
    "scene" : 0,
    "scenes" : [
        {
            "name" : "Scene",
            "nodes" : [
                0,
                1,
                2,
                3,
                4,
                5,
                6,
                7
            ]
        }
    ],
    "nodes" : [
        {
            "mesh" : 0,
            "name" : "Plane.003",
            "rotation" : [
                0,
                -0.46990519762039185,
                0,
                0.882716953754425
            ],
            "scale" : [
                0.17002888023853302,
                0.5793434381484985,
                0.6345049738883972
            ],
            "translation" : [
                0.12616927921772003,
                1.8840399980545044,
                6.447125434875488
            ]
        },
        {
            "mesh" : 1,
            "name" : "Cylinder",
            "scale" : [
                1,
                0.29879823327064514,
                1
            ],
            "translation" : [
                0.4289344549179077,
                1.5492587089538574,
                5.785745620727539
            ]
        },
        {
            "mesh" : 2,
            "name" : "Plane.007",
            "rotation" : [
                0,
                0,
                -1,
                0
            ],
            "scale" : [
                -0.5720790028572083,
                -0.7197975516319275,
                -0.9243612885475159
            ],
            "translation" : [
                0.35060787200927734,
                1.6711535453796387,
                5.690450191497803
            ]
        },
        {
            "mesh" : 3,
            "name" : "Plane.008",
            "rotation" : [
                0,
                -0.6894686222076416,
                0,
                0.7243155837059021
            ],
            "scale" : [
                0.3979617953300476,
                0.9558955430984497,
                0.9549336433410645
            ],
            "translation" : [
                0.3734097480773926,
                1.6801495552062988,
                5.702787399291992
            ]
        },
        {
            "mesh" : 4,
            "name" : "Plane.009",
            "rotation" : [
                0,
                0.6814113259315491,
                0,
                0.731900691986084
            ],
            "scale" : [
                0.1700288951396942,
                0.5793434381484985,
                0.6345049738883972
            ],
            "translation" : [
                0.6303762793540955,
                1.4554803371429443,
                5.706705093383789
            ]
        },
        {
            "mesh" : 5,
            "name" : "Cylinder.001",
            "scale" : [
                1,
                0.29879823327064514,
                1
            ],
            "translation" : [
                0.4106578230857849,
                1.5980168581008911,
                5.792196750640869
            ]
        },
        {
            "mesh" : 6,
            "name" : "Plane.010",
            "rotation" : [
                0.9187718629837036,
                0.16460268199443817,
                -0.3587985336780548,
                0.005279276520013809
            ],
            "scale" : [
                -0.5720790028572083,
                -0.7197975516319275,
                -0.9243612885475159
            ],
            "translation" : [
                0.5253541469573975,
                1.7568435668945312,
                5.508213520050049
            ]
        },
        {
            "mesh" : 7,
            "name" : "Text",
            "rotation" : [
                0.002206133445724845,
                -0.7029494047164917,
                0.7112109065055847,
                0.006030230317264795
            ],
            "translation" : [
                3.093302011489868,
                0.18156301975250244,
                5.582056999206543
            ]
        }
    ],
    "materials" : [
        {
            "doubleSided" : true,
            "name" : "Material.002",
            "pbrMetallicRoughness" : {
                "baseColorFactor" : [
                    0.0016801300225779414,
                    0.8000000715255737,
                    0.03854108974337578,
                    1
                ],
                "metallicFactor" : 0,
                "roughnessFactor" : 0.4000000059604645
            }
        },
        {
            "doubleSided" : true,
            "name" : "Material.006",
            "pbrMetallicRoughness" : {
                "baseColorFactor" : [
                    0.0079256072640419,
                    0.0079256072640419,
                    0.0079256072640419,
                    1
                ],
                "metallicFactor" : 0,
                "roughnessFactor" : 0.4000000059604645
            }
        },
        {
            "doubleSided" : true,
            "name" : "Material.005",
            "pbrMetallicRoughness" : {
                "baseColorFactor" : [
                    0.41156837344169617,
                    0.06137596070766449,
                    0.004748264327645302,
                    1
                ],
                "metallicFactor" : 0,
                "roughnessFactor" : 0.4000000059604645
            }
        },
        {
            "doubleSided" : true,
            "name" : "Material.003",
            "pbrMetallicRoughness" : {
                "baseColorFactor" : [
                    0.028154591098427773,
                    0.0928509384393692,
                    0.006525062955915928,
                    1
                ],
                "metallicFactor" : 0,
                "roughnessFactor" : 0.4000000059604645
            }
        },
        {
            "doubleSided" : true,
            "name" : "Material.001",
            "pbrMetallicRoughness" : {
                "baseColorFactor" : [
                    0.014333819970488548,
                    0.8000000715255737,
                    0.0802193433046341,
                    1
                ],
                "metallicFactor" : 0,
                "roughnessFactor" : 0.4000000059604645
            }
        },
        {
            "doubleSided" : true,
            "name" : "Material.007",
            "pbrMetallicRoughness" : {
                "baseColorFactor" : [
                    0.49584999680519104,
                    0.002074240706861019,
                    0.0012055138358846307,
                    1
                ],
                "metallicFactor" : 0.6791045069694519,
                "roughnessFactor" : 0.7358208894729614
            }
        }
    ],
    "meshes" : [
        {
            "name" : "Plane.005",
            "primitives" : [
                {
                    "attributes" : {
                        "POSITION" : 0,
                        "NORMAL" : 1,
                        "TEXCOORD_0" : 2
                    },
                    "indices" : 3,
                    "material" : 0
                }
            ]
        },
        {
            "name" : "Cylinder",
            "primitives" : [
                {
                    "attributes" : {
                        "POSITION" : 4,
                        "NORMAL" : 5,
                        "TEXCOORD_0" : 6
                    },
                    "indices" : 7,
                    "material" : 1
                },
                {
                    "attributes" : {
                        "POSITION" : 8,
                        "NORMAL" : 9,
                        "TEXCOORD_0" : 10
                    },
                    "indices" : 11,
                    "material" : 2
                }
            ]
        },
        {
            "name" : "Plane.008",
            "primitives" : [
                {
                    "attributes" : {
                        "POSITION" : 12,
                        "NORMAL" : 13,
                        "TEXCOORD_0" : 14
                    },
                    "indices" : 3,
                    "material" : 3
                }
            ]
        },
        {
            "name" : "Plane.009",
            "primitives" : [
                {
                    "attributes" : {
                        "POSITION" : 15,
                        "NORMAL" : 16,
                        "TEXCOORD_0" : 17
                    },
                    "indices" : 3,
                    "material" : 4
                }
            ]
        },
        {
            "name" : "Plane.010",
            "primitives" : [
                {
                    "attributes" : {
                        "POSITION" : 18,
                        "NORMAL" : 19,
                        "TEXCOORD_0" : 20
                    },
                    "indices" : 3,
                    "material" : 0
                }
            ]
        },
        {
            "name" : "Cylinder.001",
            "primitives" : [
                {
                    "attributes" : {
                        "POSITION" : 21,
                        "NORMAL" : 22,
                        "TEXCOORD_0" : 23
                    },
                    "indices" : 7,
                    "material" : 1
                },
                {
                    "attributes" : {
                        "POSITION" : 24,
                        "NORMAL" : 25,
                        "TEXCOORD_0" : 26
                    },
                    "indices" : 11,
                    "material" : 2
                }
            ]
        },
        {
            "name" : "Plane.011",
            "primitives" : [
                {
                    "attributes" : {
                        "POSITION" : 27,
                        "NORMAL" : 28,
                        "TEXCOORD_0" : 29
                    },
                    "indices" : 3,
                    "material" : 3
                }
            ]
        },
        {
            "name" : "Text",
            "primitives" : [
                {
                    "attributes" : {
                        "POSITION" : 30,
                        "NORMAL" : 31,
                        "TEXCOORD_0" : 32
                    },
                    "indices" : 33,
                    "material" : 5
                }
            ]
        }
    ],
    "accessors" : [
        {
            "bufferView" : 0,
            "componentType" : 5126,
            "count" : 376,
            "max" : [
                0.06198396533727646,
                3.1996233463287354,
                2.522339344024658
            ],
            "min" : [
                -1.6504818201065063,
                -0.09769060462713242,
                -0.004799559246748686
            ],
            "type" : "VEC3"
        },
        {
            "bufferView" : 1,
            "componentType" : 5126,
            "count" : 376,
            "type" : "VEC3"
        },
        {
            "bufferView" : 2,
            "componentType" : 5126,
            "count" : 376,
            "type" : "VEC2"
        },
        {
            "bufferView" : 3,
            "componentType" : 5123,
            "count" : 564,
            "type" : "SCALAR"
        },
        {
            "bufferView" : 4,
            "componentType" : 5126,
            "count" : 192,
            "max" : [
                1,
                1,
                1
            ],
            "min" : [
                -1,
                -1,
                -1
            ],
            "type" : "VEC3"
        },
        {
            "bufferView" : 5,
            "componentType" : 5126,
            "count" : 192,
            "type" : "VEC3"
        },
        {
            "bufferView" : 6,
            "componentType" : 5126,
            "count" : 192,
            "type" : "VEC2"
        },
        {
            "bufferView" : 7,
            "componentType" : 5123,
            "count" : 372,
            "type" : "SCALAR"
        },
        {
            "bufferView" : 8,
            "componentType" : 5126,
            "count" : 1984,
            "max" : [
                1.6789950132369995,
                1.7811665534973145,
                1.8451082706451416
            ],
            "min" : [
                -1.7701722383499146,
                0.7914286851882935,
                -1.8227870464324951
            ],
            "type" : "VEC3"
        },
        {
            "bufferView" : 9,
            "componentType" : 5126,
            "count" : 1984,
            "type" : "VEC3"
        },
        {
            "bufferView" : 10,
            "componentType" : 5126,
            "count" : 1984,
            "type" : "VEC2"
        },
        {
            "bufferView" : 11,
            "componentType" : 5123,
            "count" : 2880,
            "type" : "SCALAR"
        },
        {
            "bufferView" : 12,
            "componentType" : 5126,
            "count" : 376,
            "max" : [
                0.06198396533727646,
                3.1996233463287354,
                2.522339344024658
            ],
            "min" : [
                -1.6504818201065063,
                -0.09769060462713242,
                -0.004799559246748686
            ],
            "type" : "VEC3"
        },
        {
            "bufferView" : 13,
            "componentType" : 5126,
            "count" : 376,
            "type" : "VEC3"
        },
        {
            "bufferView" : 14,
            "componentType" : 5126,
            "count" : 376,
            "type" : "VEC2"
        },
        {
            "bufferView" : 15,
            "componentType" : 5126,
            "count" : 376,
            "max" : [
                0.06198396533727646,
                3.1996233463287354,
                2.522339344024658
            ],
            "min" : [
                -1.6504818201065063,
                -0.09769060462713242,
                -0.004799559246748686
            ],
            "type" : "VEC3"
        },
        {
            "bufferView" : 16,
            "componentType" : 5126,
            "count" : 376,
            "type" : "VEC3"
        },
        {
            "bufferView" : 17,
            "componentType" : 5126,
            "count" : 376,
            "type" : "VEC2"
        },
        {
            "bufferView" : 18,
            "componentType" : 5126,
            "count" : 376,
            "max" : [
                0.06198396533727646,
                3.1996233463287354,
                2.522339344024658
            ],
            "min" : [
                -1.6504818201065063,
                -0.09769060462713242,
                -0.004799559246748686
            ],
            "type" : "VEC3"
        },
        {
            "bufferView" : 19,
            "componentType" : 5126,
            "count" : 376,
            "type" : "VEC3"
        },
        {
            "bufferView" : 20,
            "componentType" : 5126,
            "count" : 376,
            "type" : "VEC2"
        },
        {
            "bufferView" : 21,
            "componentType" : 5126,
            "count" : 192,
            "max" : [
                1,
                1,
                1
            ],
            "min" : [
                -1,
                -1,
                -1
            ],
            "type" : "VEC3"
        },
        {
            "bufferView" : 22,
            "componentType" : 5126,
            "count" : 192,
            "type" : "VEC3"
        },
        {
            "bufferView" : 23,
            "componentType" : 5126,
            "count" : 192,
            "type" : "VEC2"
        },
        {
            "bufferView" : 24,
            "componentType" : 5126,
            "count" : 1984,
            "max" : [
                1.6789950132369995,
                1.7811665534973145,
                1.8451082706451416
            ],
            "min" : [
                -1.7701722383499146,
                0.7914286851882935,
                -1.8227870464324951
            ],
            "type" : "VEC3"
        },
        {
            "bufferView" : 25,
            "componentType" : 5126,
            "count" : 1984,
            "type" : "VEC3"
        },
        {
            "bufferView" : 26,
            "componentType" : 5126,
            "count" : 1984,
            "type" : "VEC2"
        },
        {
            "bufferView" : 27,
            "componentType" : 5126,
            "count" : 376,
            "max" : [
                0.06198396533727646,
                3.1996233463287354,
                2.522339344024658
            ],
            "min" : [
                -1.6504818201065063,
                -0.09769060462713242,
                -0.004799559246748686
            ],
            "type" : "VEC3"
        },
        {
            "bufferView" : 28,
            "componentType" : 5126,
            "count" : 376,
            "type" : "VEC3"
        },
        {
            "bufferView" : 29,
            "componentType" : 5126,
            "count" : 376,
            "type" : "VEC2"
        },
        {
            "bufferView" : 30,
            "componentType" : 5126,
            "count" : 1068,
            "max" : [
                5.551000595092773,
                0,
                0.23000000417232513
            ],
            "min" : [
                0,
                0,
                -0.6914074420928955
            ],
            "type" : "VEC3"
        },
        {
            "bufferView" : 31,
            "componentType" : 5126,
            "count" : 1068,
            "type" : "VEC3"
        },
        {
            "bufferView" : 32,
            "componentType" : 5126,
            "count" : 1068,
            "type" : "VEC2"
        },
        {
            "bufferView" : 33,
            "componentType" : 5123,
            "count" : 2316,
            "type" : "SCALAR"
        }
    ],
    "bufferViews" : [
        {
            "buffer" : 0,
            "byteLength" : 4512,
            "byteOffset" : 0
        },
        {
            "buffer" : 0,
            "byteLength" : 4512,
            "byteOffset" : 4512
        },
        {
            "buffer" : 0,
            "byteLength" : 3008,
            "byteOffset" : 9024
        },
        {
            "buffer" : 0,
            "byteLength" : 1128,
            "byteOffset" : 12032
        },
        {
            "buffer" : 0,
            "byteLength" : 2304,
            "byteOffset" : 13160
        },
        {
            "buffer" : 0,
            "byteLength" : 2304,
            "byteOffset" : 15464
        },
        {
            "buffer" : 0,
            "byteLength" : 1536,
            "byteOffset" : 17768
        },
        {
            "buffer" : 0,
            "byteLength" : 744,
            "byteOffset" : 19304
        },
        {
            "buffer" : 0,
            "byteLength" : 23808,
            "byteOffset" : 20048
        },
        {
            "buffer" : 0,
            "byteLength" : 23808,
            "byteOffset" : 43856
        },
        {
            "buffer" : 0,
            "byteLength" : 15872,
            "byteOffset" : 67664
        },
        {
            "buffer" : 0,
            "byteLength" : 5760,
            "byteOffset" : 83536
        },
        {
            "buffer" : 0,
            "byteLength" : 4512,
            "byteOffset" : 89296
        },
        {
            "buffer" : 0,
            "byteLength" : 4512,
            "byteOffset" : 93808
        },
        {
            "buffer" : 0,
            "byteLength" : 3008,
            "byteOffset" : 98320
        },
        {
            "buffer" : 0,
            "byteLength" : 4512,
            "byteOffset" : 101328
        },
        {
            "buffer" : 0,
            "byteLength" : 4512,
            "byteOffset" : 105840
        },
        {
            "buffer" : 0,
            "byteLength" : 3008,
            "byteOffset" : 110352
        },
        {
            "buffer" : 0,
            "byteLength" : 4512,
            "byteOffset" : 113360
        },
        {
            "buffer" : 0,
            "byteLength" : 4512,
            "byteOffset" : 117872
        },
        {
            "buffer" : 0,
            "byteLength" : 3008,
            "byteOffset" : 122384
        },
        {
            "buffer" : 0,
            "byteLength" : 2304,
            "byteOffset" : 125392
        },
        {
            "buffer" : 0,
            "byteLength" : 2304,
            "byteOffset" : 127696
        },
        {
            "buffer" : 0,
            "byteLength" : 1536,
            "byteOffset" : 130000
        },
        {
            "buffer" : 0,
            "byteLength" : 23808,
            "byteOffset" : 131536
        },
        {
            "buffer" : 0,
            "byteLength" : 23808,
            "byteOffset" : 155344
        },
        {
            "buffer" : 0,
            "byteLength" : 15872,
            "byteOffset" : 179152
        },
        {
            "buffer" : 0,
            "byteLength" : 4512,
            "byteOffset" : 195024
        },
        {
            "buffer" : 0,
            "byteLength" : 4512,
            "byteOffset" : 199536
        },
        {
            "buffer" : 0,
            "byteLength" : 3008,
            "byteOffset" : 204048
        },
        {
            "buffer" : 0,
            "byteLength" : 12816,
            "byteOffset" : 207056
        },
        {
            "buffer" : 0,
            "byteLength" : 12816,
            "byteOffset" : 219872
        },
        {
            "buffer" : 0,
            "byteLength" : 8544,
            "byteOffset" : 232688
        },
        {
            "buffer" : 0,
            "byteLength" : 4632,
            "byteOffset" : 241232
        }
    ],
    "buffers" : [
        {
            "byteLength" : 245864,
            "uri" : "data:application/octet-stream;base64,"
        }
    ]
}
